<mxfile host="app.diagrams.net" modified="2020-10-27T21:22:40.906Z" agent="5.0 (Windows NT 10.0; Win64; x64) AppleWebKit/537.36 (KHTML, like Gecko) Chrome/86.0.4240.111 Safari/537.36" etag="9D82SW7Cyr67pMRTSfxP" version="13.8.5" type="github">
  <diagram id="2Kik47GidB9AQ40GQkq-" name="Page-1">
    <mxGraphModel dx="1422" dy="794" grid="1" gridSize="10" guides="1" tooltips="1" connect="1" arrows="1" fold="1" page="1" pageScale="1" pageWidth="1169" pageHeight="827" math="0" shadow="0">
      <root>
        <mxCell id="0" />
        <mxCell id="1" parent="0" />
        <mxCell id="m06EBDlfmfmUvxlai8eZ-1" value="&lt;div style=&quot;font-size: 17px&quot;&gt;&lt;b style=&quot;font-size: 17px&quot;&gt;Use Case Diagram -&amp;nbsp;&lt;/b&gt;&lt;b&gt;&lt;span lang=&quot;pl&quot; style=&quot;line-height: 115%&quot;&gt;Ekosystem dla obsługi zakupów on-line&lt;/span&gt;&lt;/b&gt;&lt;/div&gt;&lt;div&gt;&lt;i&gt;&lt;font style=&quot;font-size: 12px&quot;&gt;rok akademicki 2020/21, semestr zimowy&lt;/font&gt;&lt;/i&gt;&lt;/div&gt;" style="rounded=0;whiteSpace=wrap;html=1;fillColor=#dae8fc;strokeColor=#6c8ebf;fontFamily=Helvetica;align=center;fontSize=17;" parent="1" vertex="1">
          <mxGeometry x="32.5" y="40" width="1110" height="60" as="geometry" />
        </mxCell>
        <mxCell id="m06EBDlfmfmUvxlai8eZ-2" value="&lt;div&gt;&lt;font&gt;&lt;b&gt;Karol Lech&lt;/b&gt;&lt;/font&gt;&lt;/div&gt;&lt;div&gt;&lt;font&gt;&lt;b&gt;Przemysław Pleśniarski&lt;/b&gt;&lt;/font&gt;&lt;/div&gt;&lt;div&gt;&lt;font&gt;&lt;b&gt;Krzysztof Podkulski&lt;/b&gt;&lt;/font&gt;&lt;/div&gt;&lt;div&gt;&lt;b&gt;Marcin Wielgos&lt;/b&gt;&lt;/div&gt;&lt;div&gt;&lt;u&gt;&lt;i&gt;LAB 3&lt;/i&gt;&lt;/u&gt;&lt;/div&gt;" style="rounded=0;whiteSpace=wrap;html=1;fillColor=#dae8fc;strokeColor=#6c8ebf;align=right;fontFamily=Helvetica;labelBackgroundColor=none;labelBorderColor=none;strokeWidth=1;glass=0;shadow=0;sketch=0;" parent="1" vertex="1">
          <mxGeometry x="912.5" y="110" width="230" height="110" as="geometry" />
        </mxCell>
        <mxCell id="m06EBDlfmfmUvxlai8eZ-3" value="&lt;div&gt;Celem projektu jest stworzenie ekosystemu dla sieci magazynowej i skomunikowanie jej ze sklepami internetowymi.&amp;nbsp;&lt;/div&gt;&lt;div&gt;Funkcjonalności projektu zakładają stworzenie dowolnej liczby magazynów, produktów w nim zawartych oraz sklepów internetowych i konsumentów, którzy mogą&lt;/div&gt;&lt;div&gt;dokonywać zakupów online.&lt;/div&gt;&lt;div&gt;Głównym założeniem jest funkcja dzięki której system będzie w stanie przyjąć zamówienie od klienta, a następnie wygenerować raport dotyczący dostępności produktów, miejsca przechowywania, a następnie dostarczyć optymalne rozwiązanie dla skompletowania zamówienia.&amp;nbsp;&lt;/div&gt;" style="rounded=0;whiteSpace=wrap;html=1;align=left;fontFamily=Helvetica;labelBackgroundColor=none;labelBorderColor=none;strokeWidth=1;glass=0;shadow=0;sketch=0;fillColor=#f5f5f5;strokeColor=#666666;fontColor=#333333;" parent="1" vertex="1">
          <mxGeometry x="32.5" y="110" width="870" height="110" as="geometry" />
        </mxCell>
        <mxCell id="m06EBDlfmfmUvxlai8eZ-5" value="Mikroserwis autoryzacji" style="shape=umlActor;verticalLabelPosition=bottom;verticalAlign=top;html=1;outlineConnect=0;fillColor=#d5e8d4;strokeColor=#82b366;" parent="1" vertex="1">
          <mxGeometry x="90" y="370" width="30" height="60" as="geometry" />
        </mxCell>
        <mxCell id="m06EBDlfmfmUvxlai8eZ-18" style="edgeStyle=orthogonalEdgeStyle;rounded=0;orthogonalLoop=1;jettySize=auto;html=1;exitX=0;exitY=0.5;exitDx=0;exitDy=0;" parent="1" source="m06EBDlfmfmUvxlai8eZ-6" edge="1">
          <mxGeometry relative="1" as="geometry">
            <mxPoint x="120" y="400" as="targetPoint" />
            <Array as="points">
              <mxPoint x="180" y="365" />
              <mxPoint x="180" y="400" />
            </Array>
          </mxGeometry>
        </mxCell>
        <mxCell id="m06EBDlfmfmUvxlai8eZ-6" value="Przechowywanie&lt;br&gt;informacji o&lt;br&gt;użytkownikach" style="ellipse;whiteSpace=wrap;html=1;" parent="1" vertex="1">
          <mxGeometry x="210" y="330" width="120" height="70" as="geometry" />
        </mxCell>
        <mxCell id="m06EBDlfmfmUvxlai8eZ-9" style="edgeStyle=orthogonalEdgeStyle;rounded=0;orthogonalLoop=1;jettySize=auto;html=1;exitX=0;exitY=0.5;exitDx=0;exitDy=0;entryX=1;entryY=0.5;entryDx=0;entryDy=0;" parent="1" source="m06EBDlfmfmUvxlai8eZ-7" target="m06EBDlfmfmUvxlai8eZ-6" edge="1">
          <mxGeometry relative="1" as="geometry" />
        </mxCell>
        <mxCell id="m06EBDlfmfmUvxlai8eZ-7" value="Konsument - główny użytkownik sklepu" style="ellipse;whiteSpace=wrap;html=1;" parent="1" vertex="1">
          <mxGeometry x="390" y="290" width="270" height="70" as="geometry" />
        </mxCell>
        <mxCell id="m06EBDlfmfmUvxlai8eZ-10" style="edgeStyle=orthogonalEdgeStyle;rounded=0;orthogonalLoop=1;jettySize=auto;html=1;exitX=0;exitY=0.5;exitDx=0;exitDy=0;entryX=1;entryY=0.5;entryDx=0;entryDy=0;" parent="1" source="m06EBDlfmfmUvxlai8eZ-8" target="m06EBDlfmfmUvxlai8eZ-6" edge="1">
          <mxGeometry relative="1" as="geometry">
            <mxPoint x="330" y="360" as="targetPoint" />
            <Array as="points">
              <mxPoint x="360" y="405" />
              <mxPoint x="360" y="365" />
            </Array>
          </mxGeometry>
        </mxCell>
        <mxCell id="m06EBDlfmfmUvxlai8eZ-8" value="Pracownik - użytkownik do obsługi &lt;br&gt;magazynowej / helpdesk" style="ellipse;whiteSpace=wrap;html=1;" parent="1" vertex="1">
          <mxGeometry x="390" y="370" width="270" height="70" as="geometry" />
        </mxCell>
        <mxCell id="m06EBDlfmfmUvxlai8eZ-17" style="edgeStyle=orthogonalEdgeStyle;rounded=0;orthogonalLoop=1;jettySize=auto;html=1;exitX=0;exitY=0.5;exitDx=0;exitDy=0;" parent="1" source="m06EBDlfmfmUvxlai8eZ-11" target="m06EBDlfmfmUvxlai8eZ-5" edge="1">
          <mxGeometry relative="1" as="geometry">
            <Array as="points">
              <mxPoint x="180" y="465" />
              <mxPoint x="180" y="400" />
            </Array>
          </mxGeometry>
        </mxCell>
        <mxCell id="m06EBDlfmfmUvxlai8eZ-11" value="Autoryzacja użytkowników" style="ellipse;whiteSpace=wrap;html=1;" parent="1" vertex="1">
          <mxGeometry x="210" y="430" width="120" height="70" as="geometry" />
        </mxCell>
        <mxCell id="m06EBDlfmfmUvxlai8eZ-12" value="Mikroserwis magazynów" style="shape=umlActor;verticalLabelPosition=bottom;verticalAlign=top;html=1;outlineConnect=0;fillColor=#f8cecc;strokeColor=#b85450;" parent="1" vertex="1">
          <mxGeometry x="100" y="1210.5" width="30" height="60" as="geometry" />
        </mxCell>
        <mxCell id="m06EBDlfmfmUvxlai8eZ-44" style="edgeStyle=orthogonalEdgeStyle;rounded=0;orthogonalLoop=1;jettySize=auto;html=1;exitX=0;exitY=0.5;exitDx=0;exitDy=0;entryX=1;entryY=0.5;entryDx=0;entryDy=0;" parent="1" source="m06EBDlfmfmUvxlai8eZ-15" target="m06EBDlfmfmUvxlai8eZ-31" edge="1">
          <mxGeometry relative="1" as="geometry">
            <Array as="points">
              <mxPoint x="490" y="1055" />
              <mxPoint x="490" y="955" />
            </Array>
          </mxGeometry>
        </mxCell>
        <mxCell id="m06EBDlfmfmUvxlai8eZ-15" value="Status z magazynu&amp;nbsp;" style="ellipse;whiteSpace=wrap;html=1;" parent="1" vertex="1">
          <mxGeometry x="516.25" y="1020" width="120" height="70" as="geometry" />
        </mxCell>
        <mxCell id="m06EBDlfmfmUvxlai8eZ-21" value="Mikroserwis sklepów&lt;br&gt;internetowych" style="shape=umlActor;verticalLabelPosition=bottom;verticalAlign=top;html=1;outlineConnect=0;fillColor=#fff2cc;strokeColor=#d6b656;" parent="1" vertex="1">
          <mxGeometry x="100" y="920" width="30" height="60" as="geometry" />
        </mxCell>
        <mxCell id="m06EBDlfmfmUvxlai8eZ-62" style="edgeStyle=orthogonalEdgeStyle;rounded=0;orthogonalLoop=1;jettySize=auto;html=1;exitX=0;exitY=0.5;exitDx=0;exitDy=0;" parent="1" source="m06EBDlfmfmUvxlai8eZ-22" target="m06EBDlfmfmUvxlai8eZ-12" edge="1">
          <mxGeometry relative="1" as="geometry" />
        </mxCell>
        <mxCell id="m06EBDlfmfmUvxlai8eZ-22" value="Informacja&lt;br&gt;o produktach" style="ellipse;whiteSpace=wrap;html=1;" parent="1" vertex="1">
          <mxGeometry x="210" y="1220" width="120" height="70" as="geometry" />
        </mxCell>
        <mxCell id="m06EBDlfmfmUvxlai8eZ-25" style="edgeStyle=orthogonalEdgeStyle;rounded=0;orthogonalLoop=1;jettySize=auto;html=1;exitX=0;exitY=0.5;exitDx=0;exitDy=0;" parent="1" source="m06EBDlfmfmUvxlai8eZ-23" target="m06EBDlfmfmUvxlai8eZ-22" edge="1">
          <mxGeometry relative="1" as="geometry" />
        </mxCell>
        <mxCell id="m06EBDlfmfmUvxlai8eZ-23" value="Atrybuty magazynowe produktu:&lt;br&gt;&lt;b&gt;w jakim magazynie się znajduje, dostępna ilość, regał, półka&lt;/b&gt;" style="ellipse;whiteSpace=wrap;html=1;" parent="1" vertex="1">
          <mxGeometry x="380" y="1280" width="240" height="70" as="geometry" />
        </mxCell>
        <mxCell id="m06EBDlfmfmUvxlai8eZ-28" style="edgeStyle=orthogonalEdgeStyle;rounded=0;orthogonalLoop=1;jettySize=auto;html=1;exitX=0;exitY=0.5;exitDx=0;exitDy=0;entryX=1;entryY=0.5;entryDx=0;entryDy=0;" parent="1" source="m06EBDlfmfmUvxlai8eZ-26" target="m06EBDlfmfmUvxlai8eZ-15" edge="1">
          <mxGeometry relative="1" as="geometry" />
        </mxCell>
        <mxCell id="m06EBDlfmfmUvxlai8eZ-26" value="Dodawanie do koszyka dostępnych&lt;br&gt;na magazynie produktów" style="ellipse;whiteSpace=wrap;html=1;" parent="1" vertex="1">
          <mxGeometry x="660" y="1060" width="120" height="70" as="geometry" />
        </mxCell>
        <mxCell id="m06EBDlfmfmUvxlai8eZ-29" style="edgeStyle=orthogonalEdgeStyle;rounded=0;orthogonalLoop=1;jettySize=auto;html=1;exitX=0;exitY=0.5;exitDx=0;exitDy=0;entryX=1;entryY=0.5;entryDx=0;entryDy=0;" parent="1" source="m06EBDlfmfmUvxlai8eZ-27" target="m06EBDlfmfmUvxlai8eZ-22" edge="1">
          <mxGeometry relative="1" as="geometry" />
        </mxCell>
        <mxCell id="m06EBDlfmfmUvxlai8eZ-27" value="Informacja o dostępności&lt;br&gt;(czy na stanie + położenie)" style="ellipse;whiteSpace=wrap;html=1;" parent="1" vertex="1">
          <mxGeometry x="410" y="1190" width="150" height="70" as="geometry" />
        </mxCell>
        <mxCell id="m06EBDlfmfmUvxlai8eZ-30" value="" style="endArrow=none;dashed=1;html=1;exitX=0.5;exitY=0;exitDx=0;exitDy=0;entryX=0.5;entryY=1;entryDx=0;entryDy=0;" parent="1" source="m06EBDlfmfmUvxlai8eZ-27" target="m06EBDlfmfmUvxlai8eZ-26" edge="1">
          <mxGeometry width="50" height="50" relative="1" as="geometry">
            <mxPoint x="560" y="1190" as="sourcePoint" />
            <mxPoint x="610" y="1140" as="targetPoint" />
          </mxGeometry>
        </mxCell>
        <mxCell id="m06EBDlfmfmUvxlai8eZ-63" style="edgeStyle=orthogonalEdgeStyle;rounded=0;orthogonalLoop=1;jettySize=auto;html=1;exitX=0;exitY=0.5;exitDx=0;exitDy=0;entryX=0.5;entryY=0.5;entryDx=0;entryDy=0;entryPerimeter=0;" parent="1" source="m06EBDlfmfmUvxlai8eZ-31" target="m06EBDlfmfmUvxlai8eZ-21" edge="1">
          <mxGeometry relative="1" as="geometry">
            <Array as="points">
              <mxPoint x="210" y="950" />
            </Array>
          </mxGeometry>
        </mxCell>
        <mxCell id="m06EBDlfmfmUvxlai8eZ-31" value="Obsługa zamówień&lt;br&gt;( + CRUD)" style="ellipse;whiteSpace=wrap;html=1;" parent="1" vertex="1">
          <mxGeometry x="210" y="920" width="120" height="70" as="geometry" />
        </mxCell>
        <mxCell id="m06EBDlfmfmUvxlai8eZ-41" style="edgeStyle=orthogonalEdgeStyle;rounded=0;orthogonalLoop=1;jettySize=auto;html=1;exitX=0;exitY=0.5;exitDx=0;exitDy=0;entryX=1;entryY=0.5;entryDx=0;entryDy=0;" parent="1" source="m06EBDlfmfmUvxlai8eZ-34" edge="1" target="m06EBDlfmfmUvxlai8eZ-31">
          <mxGeometry relative="1" as="geometry">
            <mxPoint x="330" y="1014.6666666666667" as="targetPoint" />
            <Array as="points">
              <mxPoint x="650" y="955" />
            </Array>
          </mxGeometry>
        </mxCell>
        <mxCell id="m06EBDlfmfmUvxlai8eZ-34" value="Faktury" style="ellipse;whiteSpace=wrap;html=1;" parent="1" vertex="1">
          <mxGeometry x="660" y="890" width="120" height="30" as="geometry" />
        </mxCell>
        <mxCell id="m06EBDlfmfmUvxlai8eZ-43" style="edgeStyle=orthogonalEdgeStyle;rounded=0;orthogonalLoop=1;jettySize=auto;html=1;exitX=0;exitY=0.5;exitDx=0;exitDy=0;entryX=1;entryY=0.5;entryDx=0;entryDy=0;" parent="1" source="m06EBDlfmfmUvxlai8eZ-35" target="m06EBDlfmfmUvxlai8eZ-31" edge="1">
          <mxGeometry relative="1" as="geometry">
            <Array as="points">
              <mxPoint x="490" y="1005" />
              <mxPoint x="490" y="955" />
            </Array>
          </mxGeometry>
        </mxCell>
        <mxCell id="m06EBDlfmfmUvxlai8eZ-35" value="Statusy" style="ellipse;whiteSpace=wrap;html=1;" parent="1" vertex="1">
          <mxGeometry x="652.5" y="990" width="120" height="30" as="geometry" />
        </mxCell>
        <mxCell id="m06EBDlfmfmUvxlai8eZ-37" style="edgeStyle=orthogonalEdgeStyle;rounded=0;orthogonalLoop=1;jettySize=auto;html=1;exitX=0;exitY=0.5;exitDx=0;exitDy=0;entryX=1;entryY=0.5;entryDx=0;entryDy=0;" parent="1" source="m06EBDlfmfmUvxlai8eZ-36" target="m06EBDlfmfmUvxlai8eZ-35" edge="1">
          <mxGeometry relative="1" as="geometry" />
        </mxCell>
        <mxCell id="m06EBDlfmfmUvxlai8eZ-36" value="Powiadomienia e-mail" style="ellipse;whiteSpace=wrap;html=1;" parent="1" vertex="1">
          <mxGeometry x="790" y="990" width="140" height="30" as="geometry" />
        </mxCell>
        <mxCell id="m06EBDlfmfmUvxlai8eZ-48" value="Mikroserwis produktów" style="shape=umlActor;verticalLabelPosition=bottom;verticalAlign=top;html=1;outlineConnect=0;fillColor=#e1d5e7;strokeColor=#9673a6;fontSize=12;" parent="1" vertex="1">
          <mxGeometry x="90" y="640" width="30" height="60" as="geometry" />
        </mxCell>
        <mxCell id="m06EBDlfmfmUvxlai8eZ-55" style="edgeStyle=orthogonalEdgeStyle;rounded=0;orthogonalLoop=1;jettySize=auto;html=1;exitX=0;exitY=0.5;exitDx=0;exitDy=0;entryX=0.5;entryY=0.5;entryDx=0;entryDy=0;entryPerimeter=0;" parent="1" source="m06EBDlfmfmUvxlai8eZ-49" target="m06EBDlfmfmUvxlai8eZ-48" edge="1">
          <mxGeometry relative="1" as="geometry" />
        </mxCell>
        <mxCell id="m06EBDlfmfmUvxlai8eZ-49" value="Ewidencja produktów" style="ellipse;whiteSpace=wrap;html=1;" parent="1" vertex="1">
          <mxGeometry x="200" y="610" width="120" height="70" as="geometry" />
        </mxCell>
        <mxCell id="m06EBDlfmfmUvxlai8eZ-56" style="edgeStyle=orthogonalEdgeStyle;rounded=0;orthogonalLoop=1;jettySize=auto;html=1;exitX=0;exitY=0.5;exitDx=0;exitDy=0;entryX=0.5;entryY=0.5;entryDx=0;entryDy=0;entryPerimeter=0;" parent="1" source="m06EBDlfmfmUvxlai8eZ-50" target="m06EBDlfmfmUvxlai8eZ-48" edge="1">
          <mxGeometry relative="1" as="geometry">
            <Array as="points">
              <mxPoint x="160" y="745" />
              <mxPoint x="160" y="670" />
            </Array>
          </mxGeometry>
        </mxCell>
        <mxCell id="m06EBDlfmfmUvxlai8eZ-50" value="Promocje, oferty&amp;nbsp;&lt;br&gt;specjalne" style="ellipse;whiteSpace=wrap;html=1;" parent="1" vertex="1">
          <mxGeometry x="200" y="710" width="120" height="70" as="geometry" />
        </mxCell>
        <mxCell id="m06EBDlfmfmUvxlai8eZ-52" style="edgeStyle=orthogonalEdgeStyle;rounded=0;orthogonalLoop=1;jettySize=auto;html=1;exitX=0;exitY=0.5;exitDx=0;exitDy=0;" parent="1" source="m06EBDlfmfmUvxlai8eZ-51" target="m06EBDlfmfmUvxlai8eZ-49" edge="1">
          <mxGeometry relative="1" as="geometry" />
        </mxCell>
        <mxCell id="m06EBDlfmfmUvxlai8eZ-51" value="Atrybuty opisowe produktu&amp;nbsp;&lt;br&gt;wystandaryzowane w każdym magazynie" style="ellipse;whiteSpace=wrap;html=1;" parent="1" vertex="1">
          <mxGeometry x="380" y="610" width="250" height="70" as="geometry" />
        </mxCell>
        <mxCell id="m06EBDlfmfmUvxlai8eZ-53" value="Atrybuty wymagane w każdym produkcie:&lt;br&gt;&lt;b&gt;nazwa, pojemność(waga),cena, EAN&lt;/b&gt;" style="ellipse;whiteSpace=wrap;html=1;" parent="1" vertex="1">
          <mxGeometry x="710" y="610" width="260" height="70" as="geometry" />
        </mxCell>
        <mxCell id="m06EBDlfmfmUvxlai8eZ-59" style="edgeStyle=orthogonalEdgeStyle;rounded=0;orthogonalLoop=1;jettySize=auto;html=1;exitX=0;exitY=0.5;exitDx=0;exitDy=0;entryX=1;entryY=0.5;entryDx=0;entryDy=0;" parent="1" source="m06EBDlfmfmUvxlai8eZ-58" target="m06EBDlfmfmUvxlai8eZ-27" edge="1">
          <mxGeometry relative="1" as="geometry" />
        </mxCell>
        <mxCell id="m06EBDlfmfmUvxlai8eZ-58" value="Optymalne i ekonomiczne realizowanie wysyłek/dostaw zamówień" style="ellipse;whiteSpace=wrap;html=1;" parent="1" vertex="1">
          <mxGeometry x="610" y="1200" width="270" height="70" as="geometry" />
        </mxCell>
        <mxCell id="m06EBDlfmfmUvxlai8eZ-67" style="edgeStyle=orthogonalEdgeStyle;rounded=0;orthogonalLoop=1;jettySize=auto;html=1;exitX=0.5;exitY=0;exitDx=0;exitDy=0;entryX=1;entryY=0.5;entryDx=0;entryDy=0;" parent="1" source="m06EBDlfmfmUvxlai8eZ-66" target="7NDfx66giatENHxgtlKn-9" edge="1">
          <mxGeometry relative="1" as="geometry">
            <Array as="points">
              <mxPoint x="560" y="1400" />
            </Array>
          </mxGeometry>
        </mxCell>
        <mxCell id="7NDfx66giatENHxgtlKn-2" style="edgeStyle=orthogonalEdgeStyle;rounded=0;orthogonalLoop=1;jettySize=auto;html=1;fontSize=12;" edge="1" parent="1">
          <mxGeometry relative="1" as="geometry">
            <mxPoint x="278" y="1440" as="targetPoint" />
            <mxPoint x="340" y="1510" as="sourcePoint" />
            <Array as="points">
              <mxPoint x="278" y="1510" />
            </Array>
          </mxGeometry>
        </mxCell>
        <mxCell id="m06EBDlfmfmUvxlai8eZ-66" value="Realizacja całego zamówienia z jednego magazynu, opłata normalna" style="ellipse;whiteSpace=wrap;html=1;" parent="1" vertex="1">
          <mxGeometry x="430" y="1360" width="260" height="80" as="geometry" />
        </mxCell>
        <mxCell id="7NDfx66giatENHxgtlKn-1" value="" style="endArrow=classic;html=1;fontSize=12;entryX=1;entryY=0.5;entryDx=0;entryDy=0;" edge="1" parent="1" target="m06EBDlfmfmUvxlai8eZ-51">
          <mxGeometry width="50" height="50" relative="1" as="geometry">
            <mxPoint x="709" y="645" as="sourcePoint" />
            <mxPoint x="640" y="645" as="targetPoint" />
            <Array as="points" />
          </mxGeometry>
        </mxCell>
        <mxCell id="7NDfx66giatENHxgtlKn-8" style="edgeStyle=orthogonalEdgeStyle;rounded=0;orthogonalLoop=1;jettySize=auto;html=1;fontSize=12;exitX=-0.025;exitY=0.414;exitDx=0;exitDy=0;exitPerimeter=0;" edge="1" parent="1" source="7NDfx66giatENHxgtlKn-9">
          <mxGeometry relative="1" as="geometry">
            <mxPoint x="130" y="1241" as="targetPoint" />
            <mxPoint x="200" y="1331" as="sourcePoint" />
            <Array as="points">
              <mxPoint x="200" y="1393" />
              <mxPoint x="200" y="1400" />
              <mxPoint x="170" y="1400" />
              <mxPoint x="170" y="1241" />
            </Array>
          </mxGeometry>
        </mxCell>
        <mxCell id="7NDfx66giatENHxgtlKn-9" value="Informacje o kosztach dostawy" style="ellipse;whiteSpace=wrap;html=1;" vertex="1" parent="1">
          <mxGeometry x="200" y="1360" width="140" height="80" as="geometry" />
        </mxCell>
        <mxCell id="7NDfx66giatENHxgtlKn-10" value="Realizacja całego zamówienia z co najmniej dwóch magazynów, opłata normalna + dodatkowe koszty za transport między magazynowy&amp;nbsp;" style="ellipse;whiteSpace=wrap;html=1;" vertex="1" parent="1">
          <mxGeometry x="340" y="1450" width="260" height="120" as="geometry" />
        </mxCell>
      </root>
    </mxGraphModel>
  </diagram>
</mxfile>
